<svg xmlns="http://www.w3.org/2000/svg" width="145.89" height="26.061" viewBox="0 0 145.89 26.061">
  <g id="swatch-logo" transform="translate(-17.716 -17.789)">
    <path id="Path_7" data-name="Path 7" d="M135.407,20.059a1.846,1.846,0,1,1,1.856,1.9A1.838,1.838,0,0,1,135.407,20.059Zm1.856,2.27a2.271,2.271,0,1,0-2.31-2.27A2.262,2.262,0,0,0,137.262,22.329Zm-.474-2.093h.454l.691,1.125h.434l-.73-1.145a.675.675,0,0,0,.671-.711c0-.533-.316-.75-.928-.75h-1.007v2.606h.415Zm0-.335v-.809h.533c.276,0,.572.059.572.375,0,.415-.3.434-.631.434Zm-99.9,3.435H23.362a5.6,5.6,0,0,0-3.988,1.678A5.413,5.413,0,0,0,17.815,28.9,5.509,5.509,0,0,0,19.394,32.9a5.287,5.287,0,0,0,3.81,1.544h8.37a3.041,3.041,0,0,1,3.158,3.028,3.246,3.246,0,0,1-3.178,3.137H17.716v2.9H31.574a6.2,6.2,0,0,0,6.06-6.037,5.954,5.954,0,0,0-6.06-5.928h-8.39a2.4,2.4,0,0,1-1.737-.691A2.706,2.706,0,0,1,20.7,28.9a2.573,2.573,0,0,1,.75-1.857,2.7,2.7,0,0,1,1.935-.809h13.5Zm24.715-.1V36.925a3.859,3.859,0,0,1-1.145,2.75,3.764,3.764,0,0,1-2.7,1.1,3.925,3.925,0,0,1-3.869-3.885V23.237H51V36.957a3.681,3.681,0,0,1-1.066,2.69,3.833,3.833,0,0,1-2.783,1.131,3.553,3.553,0,0,1-2.586-1.072,3.769,3.769,0,0,1-1.106-2.76V23.237h-2.9V36.925A6.756,6.756,0,0,0,42.49,41.75a6.47,6.47,0,0,0,4.659,1.927,6.656,6.656,0,0,0,4.837-1.994,7.47,7.47,0,0,0,.513-.574A6.7,6.7,0,0,0,64.48,36.925V23.237Zm22.484-.079H77.746a10.347,10.347,0,0,0-10.5,10.154,10.592,10.592,0,0,0,10.5,10.535,9.317,9.317,0,0,0,3.435-.592V40.265h-.336l-.276.13a6.357,6.357,0,0,1-2.783.555,7.7,7.7,0,0,1-7.659-7.636,7.363,7.363,0,0,1,7.6-7.254h4.9V43.426h2.9V23.158Zm11.963,17.62a3.634,3.634,0,0,1-2.566-1.1,3.293,3.293,0,0,1-.948-2.375V26.06H99.46v-2.9H92.531V17.947H89.649v19.32a6.025,6.025,0,0,0,1.757,4.424,6.451,6.451,0,0,0,4.639,1.986h4.106v-2.9Z"/>
    <path id="Path_8" data-name="Path 8" d="M433.886,37.115a7.473,7.473,0,0,1-6.869,4.446,7.555,7.555,0,0,1-5.428-2.223,7.429,7.429,0,0,1-2.191-5.383,7.658,7.658,0,0,1,7.62-7.62A7.409,7.409,0,0,1,433,29.469l2.389-1.654a10.291,10.291,0,0,0-8.35-4.382,10.578,10.578,0,0,0-10.541,10.521,10.314,10.314,0,0,0,3.04,7.43,10.511,10.511,0,0,0,17-3.087Zm13.443-13.682a8.529,8.529,0,0,0-5.882,2.231V18.557h-2.9V44.036h2.9V32.213a5.794,5.794,0,0,1,1.717-4.2,5.719,5.719,0,0,1,4.165-1.678,6,6,0,0,1,6.1,5.924V44.036h2.9v-11.8a8.9,8.9,0,0,0-9-8.8" transform="translate(-316.759 -0.61)"/>
    <path id="Path_9" data-name="Path 9" d="M630.618,46.774h19.661V66.449H630.618Z" transform="translate(-486.841 -23.023)" fill="#da0021" stroke="#da0021" stroke-width="0.336"/>
    <path id="Path_10" data-name="Path 10" d="M653.491,59.469h-6V53.492h-4.955v5.977h-6.159V64.43h6.159v6.157h4.955V64.43h6Z" transform="translate(-491.415 -28.36)" fill="#fffeff"/>
  </g>
</svg>
